<?xml version="1.0" standalone="no"?>
<!DOCTYPE svg PUBLIC "-//W3C//DTD SVG 1.1//EN" "http://www.w3.org/Graphics/SVG/1.1/DTD/svg11.dtd" >
<svg xmlns="http://www.w3.org/2000/svg">
  <metadata>Generated by IcoMoon</metadata>
  <defs>
    <font id="icomoon" horiz-adv-x="1024">
      <font-face units-per-em="1024" ascent="960" descent="-64"/>
      <missing-glyph horiz-adv-x="1024"/>
      <glyph unicode="&#x20;" horiz-adv-x="512" d=""/>
      <glyph unicode="&#xe900;" glyph-name="arrow-up" d="M512 576l-181.035-181.034 60.373-60.331 120.661 120.704 120.661-120.704 60.37 60.331-181.032 181.034z"/>
      <glyph unicode="&#xe901;" glyph-name="arrow-down" d="M512 320l-181.035 181.034 60.373 60.331 120.661-120.704 120.661 120.704 60.37-60.331-181.032-181.034z"/>
      <glyph unicode="&#xe902;" glyph-name="arrow-right" d="M640 448l-181.034-181.035-60.331 60.373 120.704 120.661-120.704 120.661 60.331 60.37 181.034-181.032z"/>
      <glyph unicode="&#xe903;" glyph-name="arrow-left" d="M384 448l181.034-181.035 60.331 60.373-120.704 120.661 120.704 120.661-60.331 60.37-181.034-181.032z"/>
      <glyph unicode="&#xe904;" glyph-name="bathtub"
             d="M298.667 576c46.933 0 85.333 38.4 85.333 85.333s-38.4 85.333-85.333 85.333-85.333-38.4-85.333-85.333 38.4-85.333 85.333-85.333zM853.333 405.333v349.867c0 64-55.467 119.467-119.467 119.467-34.133 0-64-12.8-85.333-34.133l-55.467-55.467c-4.267 4.267-12.8 4.267-21.333 4.267-17.067 0-34.133-4.267-46.933-12.8l119.467-119.467c8.533 12.8 12.8 29.867 12.8 46.933 0 8.533 0 12.8-4.267 21.333l55.467 55.467c4.267 4.267 17.067 8.533 25.6 8.533 17.067 0 34.133-17.067 34.133-34.133v-349.867h-294.4c-12.8 8.533-25.6 17.067-34.133 29.867l-59.733 68.267c-8.533 8.533-17.067 17.067-29.867 21.333s-25.6 8.533-42.667 8.533c-51.2 0-93.867-42.667-93.867-93.867v-34.133h-128v-256c0-46.933 38.4-85.333 85.333-85.333 0-21.333 17.067-42.667 42.667-42.667h597.333c21.333 0 42.667 21.333 42.667 42.667 46.933 0 85.333 38.4 85.333 85.333v256h-85.333zM853.333 149.333h-682.667v170.667h682.667v-170.667z"/>
      <glyph unicode="&#xe905;" glyph-name="check-o"
             d="M512 21.333c-235.642 0-426.667 191.027-426.667 426.667 0 235.642 191.025 426.667 426.667 426.667 235.639 0 426.667-191.025 426.667-426.667-0.26-235.533-191.134-426.406-426.667-426.667zM511.317 106.667h0.683c188.446 0.188 341.086 153.058 340.992 341.504s-152.887 341.163-341.333 341.163c-188.447 0-341.239-152.716-341.333-341.163s152.546-341.316 340.992-341.504zM426.667 234.667l-170.667 170.667 60.16 60.16 110.507-110.080 281.173 281.173 60.16-60.587-341.333-341.333z"/>
      <glyph unicode="&#xe906;" glyph-name="close" d="M511.987 508.331l211.2 211.2 60.331-60.331-211.2-211.2 211.2-211.2-60.331-60.331-211.2 211.2-211.198-211.2-60.331 60.331 211.198 211.2-211.198 211.2 60.331 60.331 211.198-211.2z"/>
      <glyph unicode="&#xe907;" glyph-name="date_range"
             d="M384 490.667h-85.333v-85.333h85.333v85.333zM554.667 490.667h-85.333v-85.333h85.333v85.333zM725.333 490.667h-85.333v-85.333h85.333v85.333zM810.667 789.333h-42.667v85.333h-85.333v-85.333h-341.333v85.333h-85.333v-85.333h-42.667c-47.36 0-84.907-38.4-84.907-85.333l-0.427-597.333c0-46.933 37.973-85.333 85.333-85.333h597.333c46.933 0 85.333 38.4 85.333 85.333v597.333c0 46.933-38.4 85.333-85.333 85.333zM810.667 106.667h-597.333v469.333h597.333v-469.333z"/>
      <glyph unicode="&#xe908;" glyph-name="facebook"
             d="M512 874.667c-235.648 0-426.667-191.019-426.667-426.667 0-212.949 156.032-389.461 360.021-421.504v298.197h-108.373v123.307h108.373v93.995c0 106.923 63.659 165.973 161.152 165.973 46.677 0 95.488-8.32 95.488-8.32v-104.96h-53.76c-53.035 0-69.547-32.896-69.547-66.645v-80.043h118.315l-18.901-123.307h-99.413v-298.197c203.947 32 359.979 208.597 359.979 421.504 0 235.648-191.019 426.667-426.667 426.667z"/>
      <glyph unicode="&#xe909;" glyph-name="fitness-center"
             d="M877.653 325.973l61.013 61.013-61.013 61.013-152.32-152.32-365.653 365.653 152.32 152.32-61.013 61.013-61.013-61.013-61.013 61.013-91.307-91.307-61.013 61.013-61.013-61.013 61.013-61.013-91.307-91.307 61.013-61.013-61.013-61.013 61.013-61.013 152.32 152.32 365.653-365.653-152.32-152.32 61.013-61.013 61.013 61.013 61.013-61.013 91.307 91.307 61.013-61.013 61.013 61.013-61.013 61.013 91.307 91.307-61.013 61.013z"/>
      <glyph unicode="&#xe90a;" glyph-name="instagram"
             d="M640 448c0-72.533-55.467-128-128-128s-128 55.467-128 128 55.467 128 128 128 128-55.467 128-128zM938.667 448c0-115.2 0-132.267-4.267-174.933 0-46.933-8.533-76.8-21.333-102.4-12.8-29.867-25.6-55.467-51.2-76.8-21.333-21.333-46.933-38.4-76.8-51.2-25.6-8.533-59.733-17.067-102.4-21.333-38.4 0-55.467 0-170.667 0s-132.267 0-174.933 4.267c-46.933 0-76.8 8.533-102.4 21.333-29.867 12.8-55.467 25.6-76.8 51.2-21.333 21.333-38.4 46.933-51.2 76.8-8.533 25.6-17.067 59.733-21.333 102.4 0 38.4 0 55.467 0 170.667s0 132.267 4.267 174.933 8.533 76.8 21.333 102.4c12.8 29.867 25.6 55.467 51.2 76.8 21.333 21.333 46.933 38.4 76.8 51.2 25.6 8.533 59.733 17.067 102.4 21.333 38.4 0 55.467 0 170.667 0s132.267 0 174.933-4.267c46.933 0 76.8-8.533 102.4-21.333 29.867-12.8 51.2-25.6 76.8-51.2 21.333-21.333 38.4-46.933 51.2-76.8 8.533-25.6 17.067-59.733 21.333-102.4 0-38.4 0-55.467 0-170.667zM725.333 448c0 119.467-93.867 213.333-213.333 213.333s-213.333-93.867-213.333-213.333 93.867-213.333 213.333-213.333 213.333 93.867 213.333 213.333zM789.333 669.867c0 29.867-25.6 55.467-55.467 55.467s-55.467-25.6-55.467-55.467 29.867-51.2 59.733-51.2c25.6 0 51.2 25.6 51.2 51.2z"/>
      <glyph unicode="&#xe90b;" glyph-name="location"
             d="M512 63.842c-53.892 45.969-103.843 96.363-149.333 150.656-68.267 81.536-149.333 202.965-149.333 318.677-0.061 120.851 72.715 229.828 184.366 276.079s240.172 20.657 325.586-64.836c56.171-55.919 87.633-131.985 87.381-211.242 0-115.712-81.067-237.141-149.333-318.677-45.491-54.293-95.441-104.687-149.333-150.656zM512 661.175c-45.73 0-87.986-24.397-110.851-64s-22.865-88.396 0-128c22.865-39.603 65.121-64 110.851-64 70.694 0 128 57.306 128 128 0 70.692-57.306 128-128 128z"/>
      <glyph unicode="&#xe90c;" glyph-name="night-shelter"
             d="M465.067 652.8h328.533c102.4 0 187.733-85.333 187.733-187.733v-375.467h-93.867v140.8h-750.933v-140.8h-93.867v657.067h93.867v-422.4h328.533v328.533zM183.467 490.667c0 64 51.2 119.467 119.467 119.467s115.2-55.467 115.2-119.467-51.2-119.467-119.467-119.467-115.2 51.2-115.2 119.467z"/>
      <glyph unicode="&#xe90d;" glyph-name="phone"
             d="M282.453 499.627c61.44-120.747 160.427-219.307 281.173-281.173l93.867 93.867c11.52 11.52 28.587 15.36 43.52 10.24 47.787-15.787 99.413-24.32 152.32-24.32 23.467 0 42.667-19.2 42.667-42.667v-148.907c0-23.467-19.2-42.667-42.667-42.667-400.64 0-725.333 324.693-725.333 725.333 0 23.467 19.2 42.667 42.667 42.667h149.333c23.467 0 42.667-19.2 42.667-42.667 0-53.333 8.533-104.533 24.32-152.32 4.693-14.933 1.28-31.573-10.667-43.52l-93.867-93.867z"/>
      <glyph unicode="&#xe90e;" glyph-name="pool"
             d="M426.667 618.667l-140.8-136.533c12.8-4.267 25.6-12.8 34.133-17.067 17.067-12.8 25.6-17.067 51.2-17.067s34.133 4.267 46.933 17.067c21.333 12.8 46.933 25.6 93.867 25.6s72.533-17.067 93.867-25.6c17.067-8.533 25.6-17.067 51.2-17.067s34.133 4.267 46.933 17.067c4.267 4.267 12.8 8.533 17.067 8.533l-273.067 273.067c-68.267 68.267-128 85.333-234.667 85.333v-106.667c76.8 0 123.733-17.067 170.667-64l42.667-42.667zM226.133 298.667c25.6 0 34.133-4.267 51.2-17.067s46.933-25.6 93.867-25.6 72.533 17.067 93.867 25.6c17.067 8.533 25.6 17.067 51.2 17.067s34.133-4.267 46.933-17.067c17.067-12.8 46.933-25.6 93.867-25.6s72.533 17.067 93.867 25.6c17.067 8.533 25.6 17.067 46.933 17.067s34.133-4.267 46.933-17.067c21.333-12.8 46.933-25.6 93.867-25.6v85.333c-21.333 0-34.133 4.267-46.933 17.067-21.333 12.8-46.933 25.6-93.867 25.6s-72.533-17.067-93.867-25.6c-17.067-8.533-25.6-17.067-46.933-17.067s-34.133 4.267-46.933 17.067c-17.067 12.8-46.933 25.6-93.867 25.6s-72.533-17.067-93.867-25.6c-17.067-8.533-25.6-17.067-51.2-17.067s-34.133 4.267-46.933 17.067c-21.333 12.8-46.933 25.6-93.867 25.6s-72.533-17.067-93.867-25.6c-17.067-8.533-25.6-17.067-51.2-17.067v-85.333c46.933 0 72.533 17.067 93.867 25.6 17.067 12.8 25.6 17.067 46.933 17.067zM797.867 192c-46.933 0-72.533-17.067-93.867-25.6-17.067-8.533-25.6-17.067-46.933-17.067s-34.133 4.267-51.2 17.067c-21.333 8.533-46.933 25.6-93.867 25.6s-72.533-17.067-93.867-25.6c-17.067-12.8-25.6-17.067-46.933-17.067-25.6 0-34.133 4.267-51.2 17.067-17.067 8.533-46.933 25.6-93.867 25.6s-72.533-17.067-93.867-25.6c-12.8-12.8-21.333-17.067-46.933-17.067v-85.333c46.933 0 72.533 17.067 93.867 25.6 17.067 12.8 25.6 17.067 46.933 17.067s34.133-4.267 46.933-17.067c21.333-8.533 51.2-25.6 98.133-25.6s72.533 17.067 93.867 25.6c17.067 8.533 25.6 17.067 51.2 17.067s34.133-4.267 46.933-17.067c17.067-12.8 46.933-25.6 93.867-25.6s72.533 17.067 93.867 25.6c17.067 8.533 25.6 17.067 46.933 17.067s34.133-4.267 46.933-17.067c21.333-12.8 46.933-25.6 93.867-25.6v85.333c-25.6 0-34.133 4.267-46.933 17.067-21.333 8.533-46.933 25.6-93.867 25.6zM704 618.667c59.733 0 106.667 46.933 106.667 106.667s-46.933 106.667-106.667 106.667-106.667-46.933-106.667-106.667 46.933-106.667 106.667-106.667z"/>
      <glyph unicode="&#xe90f;" glyph-name="room-service"
             d="M809.813 234.667h-724.48v-85.333h853.333v85.333h-128.853zM896 277.333c-11.52 173.653-138.667 315.733-305.493 350.293 4.267 10.24 6.827 21.76 6.827 33.707 0 46.933-38.4 85.333-85.333 85.333s-85.333-38.4-85.333-85.333c0-11.947 2.56-23.467 6.827-33.707-166.827-34.56-293.973-176.64-305.493-350.293h768zM512 551.253c125.867 0 233.387-78.080 277.333-188.16h-554.667c43.947 110.080 151.467 188.16 277.333 188.16z"/>
      <glyph unicode="&#xe910;" glyph-name="storefront"
             d="M934.4 580.693l-44.8 186.453c-9.387 38.4-42.667 64.853-81.493 64.853h-592.64c-38.4 0-72.107-26.88-81.067-64.853l-44.8-186.453c-10.24-43.52-0.853-87.893 26.453-122.88 3.413-4.693 8.107-8.107 11.947-12.373v-296.107c0-46.933 38.4-85.333 85.333-85.333h597.333c46.933 0 85.333 38.4 85.333 85.333v296.107c3.84 3.84 8.533 7.68 11.947 11.947 27.307 34.987 37.12 79.787 26.453 123.307zM806.827 747.093l44.8-186.453c4.267-17.92 0.427-35.84-10.667-49.92-5.973-7.68-18.773-20.053-40.107-20.053-26.027 0-48.64 20.907-51.627 48.64l-24.747 207.36 82.347 0.427zM554.667 746.667h83.627l23.040-192.853c2.133-16.64-2.987-33.28-14.080-45.653-9.387-11.093-23.040-17.493-40.533-17.493-28.587 0-52.053 25.173-52.053 55.893v200.107zM362.24 553.813l23.467 192.853h83.626v-200.107c0-30.72-23.467-55.893-55.040-55.893-14.507 0-27.733 6.4-37.973 17.493-10.667 12.373-15.787 29.013-14.080 45.653zM172.374 560.64l43.093 186.027h84.053l-24.747-207.36c-3.413-27.733-25.6-48.64-51.627-48.64-20.907 0-34.133 12.373-39.68 20.053-11.52 13.653-15.36 32-11.093 49.92zM213.334 149.333v257.28c3.413-0.427 6.4-1.28 9.813-1.28 37.12 0 70.827 15.36 95.573 40.533 25.6-25.6 59.733-40.533 98.56-40.533 37.12 0 70.4 15.36 95.146 39.68 25.173-24.32 59.307-39.68 97.707-39.68 35.84 0 69.973 14.933 95.573 40.533 24.747-25.173 58.453-40.533 95.573-40.533 3.413 0 6.4 0.853 9.813 1.28v-257.28h-597.76z"/>
      <glyph unicode="&#xe911;" glyph-name="twitter"
             d="M945.579 718.674c-32.572-14.408-67.115-23.871-102.485-28.075 37.282 22.296 65.182 57.386 78.507 98.731-34.987-20.821-73.344-35.413-113.323-43.307-55.219 59.080-143.262 73.639-214.558 35.479s-108.019-119.496-89.485-198.21c-143.487 7.192-277.174 74.966-367.787 186.453-15.86-27.241-24.194-58.207-24.149-89.728 0-61.867 31.488-116.523 79.36-148.524-28.33 0.892-56.037 8.544-80.811 22.316v-2.219c0.017-84.951 59.883-158.128 143.147-174.977-26.299-7.125-53.875-8.175-80.64-3.072 23.344-72.713 90.345-122.526 166.699-123.947-74.755-58.709-169.782-85.295-264.149-73.899 81.566-52.454 176.516-80.303 273.493-80.213 328.235 0 507.733 271.915 507.733 507.735 0 7.68-0.213 15.445-0.555 23.040 34.94 25.252 65.092 56.532 89.045 92.373l-0.043 0.043z"/>
      <glyph unicode="&#xe912;" glyph-name="wifi" d="M512.427 43.093l496.213 618.24c-19.2 14.507-210.347 170.667-496.64 170.667-286.72 0-477.441-156.16-496.641-170.667l496.641-618.667 0.427 0.427z"/>
      <glyph unicode="&#xe913;" glyph-name="a-left"
             d="M384 172.308c5.908 0 9.846 1.969 13.785 5.908l256 256c3.938 3.938 5.908 7.877 5.908 13.785s-1.969 9.846-5.908 13.785l-256 256c-7.877 7.877-19.692 7.877-27.569 0s-7.877-19.692 0-27.569l242.215-242.215-242.215-242.215c-7.877-7.877-7.877-19.692 0-27.569 3.938-3.938 7.877-5.908 13.785-5.908z"/>
      <glyph unicode="&#xe914;" glyph-name="a-left1"
             d="M640 172.308c-5.908 0-9.846 1.969-13.785 5.908l-256 256c-3.938 3.938-5.908 7.877-5.908 13.785s1.969 9.846 5.908 13.785l256 256c7.877 7.877 19.692 7.877 27.569 0s7.877-19.692 0-27.569l-242.215-242.215 242.215-242.215c7.877-7.877 7.877-19.692 0-27.569-3.938-3.938-7.877-5.908-13.785-5.908z"/>
    </font>
</defs>
</svg>
